<mxfile host="app.diagrams.net" modified="2023-12-15T06:10:19.901Z" agent="Mozilla/5.0 (X11; Linux x86_64) AppleWebKit/537.36 (KHTML, like Gecko) Chrome/119.0.0.0 Safari/537.36" etag="MFFm-3owGWzMnFBPlIfA" version="22.1.9" type="device">
  <diagram name="Page-1" id="jQb6HeSSOBNKT_kZNH1c">
    <mxGraphModel dx="1434" dy="758" grid="1" gridSize="10" guides="1" tooltips="1" connect="1" arrows="1" fold="1" page="1" pageScale="1" pageWidth="850" pageHeight="1100" math="0" shadow="0">
      <root>
        <mxCell id="0" />
        <mxCell id="1" parent="0" />
        <mxCell id="w6KJ35ehDTpDePLppchS-3" value="" style="swimlane;startSize=0;labelBackgroundColor=none;fillColor=#5D7F99;strokeColor=#D0CEE2;fontColor=#1A1A1A;" vertex="1" parent="1">
          <mxGeometry x="150" y="20" width="510" height="730" as="geometry">
            <mxRectangle x="180" y="250" width="50" height="40" as="alternateBounds" />
          </mxGeometry>
        </mxCell>
        <mxCell id="w6KJ35ehDTpDePLppchS-2" value="Order" style="ellipse;whiteSpace=wrap;html=1;labelBackgroundColor=none;fillColor=#5D7F99;strokeColor=#D0CEE2;fontColor=#1A1A1A;" vertex="1" parent="w6KJ35ehDTpDePLppchS-3">
          <mxGeometry x="40" y="220" width="140" height="70" as="geometry" />
        </mxCell>
        <mxCell id="w6KJ35ehDTpDePLppchS-9" value="Profile" style="ellipse;whiteSpace=wrap;html=1;labelBackgroundColor=none;fillColor=#5D7F99;strokeColor=#D0CEE2;fontColor=#1A1A1A;" vertex="1" parent="w6KJ35ehDTpDePLppchS-3">
          <mxGeometry x="40" y="411" width="140" height="70" as="geometry" />
        </mxCell>
        <mxCell id="w6KJ35ehDTpDePLppchS-10" value="Payment" style="ellipse;whiteSpace=wrap;html=1;labelBackgroundColor=none;fillColor=#5D7F99;strokeColor=#D0CEE2;fontColor=#1A1A1A;" vertex="1" parent="w6KJ35ehDTpDePLppchS-3">
          <mxGeometry x="40" y="320" width="140" height="70" as="geometry" />
        </mxCell>
        <mxCell id="w6KJ35ehDTpDePLppchS-14" value="Tracking" style="ellipse;whiteSpace=wrap;html=1;labelBackgroundColor=none;fillColor=#5D7F99;strokeColor=#D0CEE2;fontColor=#1A1A1A;" vertex="1" parent="w6KJ35ehDTpDePLppchS-3">
          <mxGeometry x="40" y="510" width="140" height="70" as="geometry" />
        </mxCell>
        <mxCell id="w6KJ35ehDTpDePLppchS-31" value="Login" style="ellipse;whiteSpace=wrap;html=1;labelBackgroundColor=none;fillColor=#5D7F99;strokeColor=#D0CEE2;fontColor=#1A1A1A;" vertex="1" parent="w6KJ35ehDTpDePLppchS-3">
          <mxGeometry x="210" y="620" width="140" height="70" as="geometry" />
        </mxCell>
        <mxCell id="w6KJ35ehDTpDePLppchS-39" value="Favorite" style="ellipse;whiteSpace=wrap;html=1;labelBackgroundColor=none;fillColor=#5D7F99;strokeColor=#D0CEE2;fontColor=#1A1A1A;" vertex="1" parent="w6KJ35ehDTpDePLppchS-3">
          <mxGeometry x="40" y="120" width="140" height="70" as="geometry" />
        </mxCell>
        <mxCell id="w6KJ35ehDTpDePLppchS-43" value="Cart" style="ellipse;whiteSpace=wrap;html=1;labelBackgroundColor=none;fillColor=#5D7F99;strokeColor=#D0CEE2;fontColor=#1A1A1A;" vertex="1" parent="w6KJ35ehDTpDePLppchS-3">
          <mxGeometry x="40" y="20" width="140" height="70" as="geometry" />
        </mxCell>
        <mxCell id="w6KJ35ehDTpDePLppchS-45" style="edgeStyle=orthogonalEdgeStyle;rounded=0;orthogonalLoop=1;jettySize=auto;html=1;exitX=0.5;exitY=0.5;exitDx=0;exitDy=0;exitPerimeter=0;strokeColor=#736CA8;fontColor=#1A1A1A;" edge="1" parent="1" source="w6KJ35ehDTpDePLppchS-1" target="w6KJ35ehDTpDePLppchS-43">
          <mxGeometry relative="1" as="geometry">
            <Array as="points">
              <mxPoint x="70" y="360" />
              <mxPoint x="70" y="75" />
            </Array>
          </mxGeometry>
        </mxCell>
        <mxCell id="w6KJ35ehDTpDePLppchS-48" style="edgeStyle=orthogonalEdgeStyle;rounded=0;orthogonalLoop=1;jettySize=auto;html=1;exitX=0.5;exitY=0.5;exitDx=0;exitDy=0;exitPerimeter=0;entryX=0;entryY=0.5;entryDx=0;entryDy=0;strokeColor=#736CA8;fontColor=#1A1A1A;" edge="1" parent="1" source="w6KJ35ehDTpDePLppchS-1" target="w6KJ35ehDTpDePLppchS-2">
          <mxGeometry relative="1" as="geometry">
            <Array as="points">
              <mxPoint x="70" y="360" />
              <mxPoint x="70" y="275" />
            </Array>
          </mxGeometry>
        </mxCell>
        <mxCell id="w6KJ35ehDTpDePLppchS-49" style="edgeStyle=orthogonalEdgeStyle;rounded=0;orthogonalLoop=1;jettySize=auto;html=1;exitX=0.5;exitY=0.5;exitDx=0;exitDy=0;exitPerimeter=0;strokeColor=#736CA8;fontColor=#1A1A1A;" edge="1" parent="1" source="w6KJ35ehDTpDePLppchS-1" target="w6KJ35ehDTpDePLppchS-10">
          <mxGeometry relative="1" as="geometry">
            <Array as="points">
              <mxPoint x="150" y="360" />
              <mxPoint x="150" y="360" />
            </Array>
          </mxGeometry>
        </mxCell>
        <mxCell id="w6KJ35ehDTpDePLppchS-51" style="edgeStyle=orthogonalEdgeStyle;rounded=0;orthogonalLoop=1;jettySize=auto;html=1;exitX=0.5;exitY=0.5;exitDx=0;exitDy=0;exitPerimeter=0;entryX=0;entryY=0.5;entryDx=0;entryDy=0;strokeColor=#736CA8;fontColor=#1A1A1A;" edge="1" parent="1" source="w6KJ35ehDTpDePLppchS-1" target="w6KJ35ehDTpDePLppchS-14">
          <mxGeometry relative="1" as="geometry">
            <Array as="points">
              <mxPoint x="70" y="360" />
              <mxPoint x="70" y="565" />
            </Array>
          </mxGeometry>
        </mxCell>
        <mxCell id="w6KJ35ehDTpDePLppchS-1" value="&lt;hr&gt;" style="shape=umlActor;verticalLabelPosition=bottom;verticalAlign=top;html=1;outlineConnect=0;labelBackgroundColor=none;fillColor=#5D7F99;strokeColor=#D0CEE2;fontColor=#1A1A1A;direction=east;" vertex="1" parent="1">
          <mxGeometry x="20" y="330" width="30" height="60" as="geometry" />
        </mxCell>
        <mxCell id="w6KJ35ehDTpDePLppchS-5" value="Admin" style="shape=umlActor;verticalLabelPosition=bottom;verticalAlign=top;html=1;outlineConnect=0;labelBackgroundColor=none;fillColor=#5D7F99;strokeColor=#D0CEE2;fontColor=#1A1A1A;" vertex="1" parent="1">
          <mxGeometry x="790" y="750" width="30" height="60" as="geometry" />
        </mxCell>
        <mxCell id="w6KJ35ehDTpDePLppchS-46" style="edgeStyle=orthogonalEdgeStyle;rounded=0;orthogonalLoop=1;jettySize=auto;html=1;exitX=0.5;exitY=0.5;exitDx=0;exitDy=0;exitPerimeter=0;entryX=0.043;entryY=0.671;entryDx=0;entryDy=0;entryPerimeter=0;strokeColor=#736CA8;fontColor=#1A1A1A;" edge="1" parent="1" source="w6KJ35ehDTpDePLppchS-1" target="w6KJ35ehDTpDePLppchS-39">
          <mxGeometry relative="1" as="geometry">
            <Array as="points">
              <mxPoint x="70" y="360" />
              <mxPoint x="70" y="187" />
            </Array>
          </mxGeometry>
        </mxCell>
        <mxCell id="w6KJ35ehDTpDePLppchS-50" style="edgeStyle=orthogonalEdgeStyle;rounded=0;orthogonalLoop=1;jettySize=auto;html=1;exitX=0.5;exitY=0.5;exitDx=0;exitDy=0;exitPerimeter=0;entryX=0;entryY=0.614;entryDx=0;entryDy=0;entryPerimeter=0;strokeColor=#736CA8;fontColor=#1A1A1A;" edge="1" parent="1" source="w6KJ35ehDTpDePLppchS-1" target="w6KJ35ehDTpDePLppchS-9">
          <mxGeometry relative="1" as="geometry">
            <Array as="points">
              <mxPoint x="70" y="360" />
              <mxPoint x="70" y="473" />
            </Array>
          </mxGeometry>
        </mxCell>
      </root>
    </mxGraphModel>
  </diagram>
</mxfile>
